<?xml version="1.0" standalone="no"?>
<!DOCTYPE svg PUBLIC "-//W3C//DTD SVG 20010904//EN"
 "http://www.w3.org/TR/2001/REC-SVG-20010904/DTD/svg10.dtd">
<svg version="1.0" xmlns="http://www.w3.org/2000/svg"
 width="512.000000pt" height="512.000000pt" viewBox="0 0 512.000000 512.000000"
 preserveAspectRatio="xMidYMid meet">

<g transform="translate(0.000000,512.000000) scale(0.100000,-0.100000)"
fill="#000000" stroke="none">
<path d="M1342 4675 c-81 -19 -210 -88 -274 -145 -112 -100 -186 -240 -208
-395 -13 -95 -13 -3055 0 -3150 30 -208 153 -387 329 -478 149 -77 64 -72
1132 -72 l956 0 39 27 c21 15 50 44 64 65 21 31 25 48 25 113 0 65 -4 82 -25
113 -14 21 -43 50 -64 65 l-39 27 -922 5 -922 5 -48 30 c-36 22 -57 45 -77 84
l-28 53 0 1538 0 1538 28 53 c20 39 41 62 77 84 l48 30 922 5 921 5 37 25 c21
14 50 43 65 64 24 35 27 49 27 116 0 67 -3 81 -27 116 -15 21 -44 50 -65 64
l-37 25 -940 2 c-741 1 -952 -1 -994 -12z"/>
<path d="M3138 3616 c-57 -21 -85 -42 -115 -87 -37 -57 -44 -149 -15 -205 11
-21 133 -151 271 -289 138 -137 251 -253 251 -257 0 -4 -379 -9 -843 -10
l-843 -3 -37 -25 c-21 -14 -50 -43 -65 -64 -24 -35 -27 -49 -27 -116 0 -67 3
-81 27 -116 15 -21 44 -50 65 -64 l37 -25 843 -3 c464 -1 843 -6 843 -10 0 -4
-113 -120 -251 -257 -138 -138 -260 -268 -271 -289 -30 -59 -22 -151 18 -208
61 -88 179 -118 269 -71 50 27 926 905 951 953 25 49 24 134 -3 185 -26 49
-904 926 -950 949 -47 23 -112 28 -155 12z"/>
</g>
</svg>
